<svg xmlns="http://www.w3.org/2000/svg" viewBox="0 0 1440 320"><path fill="#000b76" fill-opacity="1.5" d="M0,96L34.3,133.3C68.6,171,137,245,206,234.7C274.3,224,343,128,411,106.7C480,85,549,139,617,181.3C685.7,224,754,256,823,240C891.4,224,960,160,1029,149.3C1097.1,139,1166,181,1234,202.7C1302.9,224,1371,224,1406,224L1440,224L1440,0L1405.7,0C1371.4,0,1303,0,1234,0C1165.7,0,1097,0,1029,0C960,0,891,0,823,0C754.3,0,686,0,617,0C548.6,0,480,0,411,0C342.9,0,274,0,206,0C137.1,0,69,0,34,0L0,0Z"></path></svg>